<svg width="32" height="32" viewBox="0 0 32 32" fill="none" xmlns="http://www.w3.org/2000/svg">
<g clip-path="url(#clip0_1_7)">
<path d="M5.83179 18.864V24.936C5.83179 25.332 5.91979 25.6033 6.09579 25.75C6.27179 25.9113 6.53579 25.992 6.88779 25.992C7.13712 25.992 7.35712 25.9553 7.54779 25.882L7.56979 25.904V28.258C7.37912 28.3167 7.16646 28.368 6.93179 28.412C6.69712 28.456 6.41846 28.478 6.09579 28.478C4.95179 28.478 4.15979 28.1993 3.71979 27.642C3.27979 27.0847 3.05979 26.3367 3.05979 25.398V19.15C3.05979 18.8127 2.95712 18.578 2.75179 18.446C2.56112 18.314 2.34846 18.2333 2.11379 18.204C1.87912 18.1747 1.69579 18.16 1.56379 18.16V15.762C1.69579 15.762 1.87912 15.7547 2.11379 15.74C2.34846 15.7107 2.56112 15.6447 2.75179 15.542C2.95712 15.4247 3.05979 15.234 3.05979 14.97V8.546C3.05979 7.59267 3.27979 6.84467 3.71979 6.302C4.15979 5.74467 4.95179 5.466 6.09579 5.466C6.41846 5.466 6.69712 5.488 6.93179 5.532C7.16646 5.56133 7.37912 5.61267 7.56979 5.686V8.04L7.54779 8.062C7.35712 7.98867 7.13712 7.952 6.88779 7.952C6.53579 7.952 6.27179 8.03267 6.09579 8.194C5.91979 8.34067 5.83179 8.612 5.83179 9.008V15.256C5.83179 15.7107 5.72179 16.0553 5.50179 16.29C5.29646 16.5247 5.05446 16.686 4.77579 16.774C4.51179 16.862 4.28446 16.9207 4.09379 16.95V17.038C4.28446 17.0527 4.51179 17.0967 4.77579 17.17C5.05446 17.2287 5.29646 17.3827 5.50179 17.632C5.72179 17.8813 5.83179 18.292 5.83179 18.864ZM26.1637 18.864C26.1637 18.292 26.2664 17.8813 26.4717 17.632C26.6917 17.3827 26.9337 17.2287 27.1977 17.17C27.4764 17.0967 27.7111 17.0527 27.9017 17.038V16.95C27.7111 16.9207 27.4764 16.862 27.1977 16.774C26.9337 16.686 26.6917 16.5247 26.4717 16.29C26.2664 16.0553 26.1637 15.7107 26.1637 15.256V9.008C26.1637 8.612 26.0757 8.34067 25.8997 8.194C25.7237 8.03267 25.4597 7.952 25.1077 7.952C24.8584 7.952 24.6384 7.98867 24.4477 8.062L24.4257 8.04V5.686C24.6164 5.61267 24.8291 5.56133 25.0637 5.532C25.2984 5.488 25.5771 5.466 25.8997 5.466C27.0437 5.466 27.8357 5.74467 28.2757 6.302C28.7157 6.84467 28.9357 7.59267 28.9357 8.546V14.97C28.9357 15.234 29.0311 15.4247 29.2217 15.542C29.4271 15.6447 29.6471 15.7107 29.8817 15.74C30.1311 15.7547 30.3144 15.762 30.4317 15.762V18.16C30.3144 18.16 30.1311 18.1747 29.8817 18.204C29.6471 18.2333 29.4271 18.314 29.2217 18.446C29.0311 18.578 28.9357 18.8127 28.9357 19.15V25.398C28.9357 26.3367 28.7157 27.0847 28.2757 27.642C27.8357 28.1993 27.0437 28.478 25.8997 28.478C25.5771 28.478 25.2984 28.456 25.0637 28.412C24.8291 28.368 24.6164 28.3167 24.4257 28.258V25.904L24.4477 25.882C24.6384 25.9553 24.8584 25.992 25.1077 25.992C25.4597 25.992 25.7237 25.9113 25.8997 25.75C26.0757 25.6033 26.1637 25.332 26.1637 24.936V18.864Z" fill="#FF6363"/>
<path d="M22.2263 19.238C22.2263 20.4113 21.8596 21.2987 21.1263 21.9C20.4076 22.5013 19.1316 22.802 17.2983 22.802H10.4343V8.876H11.2923H17.0783C18.2956 8.876 19.2416 9.008 19.9163 9.272C20.6056 9.52133 21.0896 9.89533 21.3683 10.394C21.6469 10.8927 21.7863 11.516 21.7863 12.264C21.7863 13.2907 21.5369 14.09 21.0383 14.662C20.5543 15.2193 19.6376 15.5567 18.2883 15.674V15.74C19.2856 15.8133 20.0703 15.982 20.6423 16.246C21.2143 16.4953 21.6176 16.862 21.8523 17.346C22.1016 17.83 22.2263 18.4607 22.2263 19.238ZM16.1103 11.648H13.9543V14.376H16.1103C16.8289 14.376 17.3496 14.288 17.6723 14.112C17.9949 13.9213 18.1563 13.5547 18.1563 13.012C18.1563 12.484 17.9949 12.1247 17.6723 11.934C17.3496 11.7433 16.8289 11.648 16.1103 11.648ZM16.5503 17.258H13.9543V20.052H16.5503C17.2689 20.052 17.7896 19.9567 18.1123 19.766C18.4349 19.5607 18.5963 19.1867 18.5963 18.644C18.5963 18.0867 18.4349 17.72 18.1123 17.544C17.7896 17.3533 17.2689 17.258 16.5503 17.258Z" fill="white"/>
</g>
<defs>
<clipPath id="clip0_1_7">
<rect width="32" height="32" fill="white"/>
</clipPath>
</defs>
</svg>
