<svg width="160" height="88" viewBox="0 0 160 88" fill="none" xmlns="http://www.w3.org/2000/svg">
<circle cx="80" cy="80" r="8" fill="#FF6363"/>
<circle cx="56" cy="80" r="8" fill="#FF6363"/>
<circle cx="128" cy="80" r="8" fill="#FF6363"/>
<circle cx="104" cy="80" r="8" fill="#FF6363"/>
<circle cx="32" cy="80" r="8" fill="#FF6363"/>
<circle cx="8" cy="80" r="8" fill="#FF6363"/>
<circle cx="80" cy="56" r="8" fill="#FF6363"/>
<circle cx="56" cy="56" r="8" fill="#FF6363"/>
<circle cx="128" cy="56" r="8" fill="#FF6363"/>
<circle cx="104" cy="56" r="8" fill="#FF6363"/>
<circle cx="32" cy="56" r="8" fill="#FF6363"/>
<circle cx="8" cy="56" r="8" fill="#FF6363"/>
<circle cx="80" cy="32" r="8" fill="#FF6363"/>
<circle cx="56" cy="32" r="8" fill="#FF6363"/>
<circle cx="128" cy="32" r="8" fill="#FF6363"/>
<circle cx="104" cy="32" r="8" fill="#FF6363"/>
<circle cx="32" cy="32" r="8" fill="#FF6363"/>
<circle cx="8" cy="32" r="8" fill="#FF6363"/>
<circle cx="80" cy="8" r="8" fill="#FF6363"/>
<circle cx="56" cy="8" r="8" fill="#FF6363"/>
<circle cx="128" cy="8" r="8" fill="#FF6363"/>
<circle cx="152" cy="80" r="8" fill="#FF6363"/>
<circle cx="152" cy="56" r="8" fill="#FF6363"/>
<circle cx="152" cy="32" r="8" fill="#FF6363"/>
<circle cx="152" cy="8" r="8" fill="#FF6363"/>
<circle cx="104" cy="8" r="8" fill="#FF6363"/>
<circle cx="32" cy="8" r="8" fill="#FF6363"/>
<circle cx="8" cy="8" r="8" fill="#FF6363"/>
</svg>
