<svg width="150" height="100" viewBox="0 0 150 100" fill="none" xmlns="http://www.w3.org/2000/svg">
<path d="M21.3048 53.58C21.3048 54.6467 20.9714 55.4533 20.3048 56C19.6514 56.5467 18.4914 56.82 16.8248 56.82H10.5848V44.16H11.3648H16.6248C17.7314 44.16 18.5914 44.28 19.2048 44.52C19.8314 44.7467 20.2714 45.0867 20.5248 45.54C20.7781 45.9933 20.9048 46.56 20.9048 47.24C20.9048 48.1733 20.6781 48.9 20.2248 49.42C19.7848 49.9267 18.9514 50.2333 17.7248 50.34V50.4C18.6314 50.4667 19.3448 50.62 19.8648 50.86C20.3848 51.0867 20.7514 51.42 20.9648 51.86C21.1914 52.3 21.3048 52.8733 21.3048 53.58ZM15.7448 46.68H13.7848V49.16H15.7448C16.3981 49.16 16.8714 49.08 17.1648 48.92C17.4581 48.7467 17.6048 48.4133 17.6048 47.92C17.6048 47.44 17.4581 47.1133 17.1648 46.94C16.8714 46.7667 16.3981 46.68 15.7448 46.68ZM16.1448 51.78H13.7848V54.32H16.1448C16.7981 54.32 17.2714 54.2333 17.5648 54.06C17.8581 53.8733 18.0048 53.5333 18.0048 53.04C18.0048 52.5333 17.8581 52.2 17.5648 52.04C17.2714 51.8667 16.7981 51.78 16.1448 51.78ZM26.3043 56.82H23.1043V44.16H29.1443C30.731 44.16 31.8843 44.52 32.6043 45.24C33.3376 45.9467 33.7043 46.9933 33.7043 48.38C33.7043 49.42 33.4443 50.3133 32.9243 51.06C32.4043 51.7933 31.7176 52.2533 30.8643 52.44L30.8443 52.5C31.1776 52.7133 31.5443 53.0667 31.9443 53.56C32.3443 54.0533 32.7376 54.5933 33.1243 55.18C33.5243 55.7533 33.8776 56.2933 34.1843 56.8V56.82H30.4643L28.3043 53.62C28.1176 53.34 27.9643 53.14 27.8443 53.02C27.7376 52.9 27.6043 52.8267 27.4443 52.8C27.2976 52.7733 27.0576 52.76 26.7243 52.76H26.3043V56.82ZM28.6243 46.76H26.3043V50.16H28.6243C29.291 50.16 29.751 50.0267 30.0043 49.76C30.271 49.4933 30.4043 49.06 30.4043 48.46C30.4043 47.86 30.271 47.4267 30.0043 47.16C29.751 46.8933 29.291 46.76 28.6243 46.76ZM35.9949 56.82V44.16H45.3949V46.76H39.1949V49.16H44.5749V51.76H39.1949V54.22H45.3949V56.82H35.9949ZM55.191 44.16H58.391V56.82H55.211L51.611 51.46C51.331 51.0333 51.0977 50.6733 50.911 50.38C50.7243 50.0867 50.551 49.7933 50.391 49.5C50.231 49.2067 50.051 48.86 49.851 48.46L49.791 48.54C49.9777 49.18 50.091 49.78 50.131 50.34C50.171 50.8867 50.191 51.42 50.191 51.94V56.82H46.991V44.16H50.171L53.771 49.52C54.051 49.9333 54.2843 50.2933 54.471 50.6C54.6577 50.8933 54.831 51.1867 54.991 51.48C55.151 51.7733 55.331 52.12 55.531 52.52L55.591 52.44C55.4577 51.88 55.3577 51.34 55.291 50.82C55.2243 50.2867 55.191 49.76 55.191 49.24V44.16ZM60.3996 50.48C60.3996 48.8667 60.5796 47.5867 60.9396 46.64C61.3129 45.6933 61.9463 45.0133 62.8396 44.6C63.7463 44.1867 65.0063 43.98 66.6196 43.98C67.8329 43.98 68.8396 44.0933 69.6396 44.32C70.4396 44.5467 71.0729 44.9133 71.5396 45.42C72.0063 45.9267 72.3329 46.6 72.5196 47.44C72.7196 48.2667 72.8196 49.28 72.8196 50.48C72.8196 51.6933 72.7196 52.72 72.5196 53.56C72.3329 54.3867 72.0063 55.0533 71.5396 55.56C71.0729 56.0667 70.4396 56.4333 69.6396 56.66C68.8396 56.8867 67.8329 57 66.6196 57C65.4063 57 64.3996 56.8867 63.5996 56.66C62.7996 56.4333 62.1663 56.0667 61.6996 55.56C61.2329 55.0533 60.8996 54.3867 60.6996 53.56C60.4996 52.72 60.3996 51.6933 60.3996 50.48ZM66.6196 54.2C67.4729 54.2 68.1129 54.0933 68.5396 53.88C68.9663 53.6667 69.2529 53.2933 69.3996 52.76C69.5463 52.2133 69.6196 51.4533 69.6196 50.48C69.6196 49.52 69.5463 48.7733 69.3996 48.24C69.2529 47.7067 68.9663 47.3333 68.5396 47.12C68.1129 46.8933 67.4729 46.78 66.6196 46.78C65.7796 46.78 65.1396 46.8933 64.6996 47.12C64.2729 47.3333 63.9796 47.7067 63.8196 48.24C63.6729 48.7733 63.5996 49.52 63.5996 50.48C63.5996 51.4533 63.6729 52.2133 63.8196 52.76C63.9796 53.2933 64.2729 53.6667 64.6996 53.88C65.1396 54.0933 65.7796 54.2 66.6196 54.2ZM78.023 56.82H74.823V44.16H80.863C82.4497 44.16 83.603 44.52 84.323 45.24C85.0564 45.9467 85.423 46.9933 85.423 48.38C85.423 49.42 85.163 50.3133 84.643 51.06C84.123 51.7933 83.4364 52.2533 82.583 52.44L82.563 52.5C82.8964 52.7133 83.263 53.0667 83.663 53.56C84.063 54.0533 84.4564 54.5933 84.843 55.18C85.243 55.7533 85.5964 56.2933 85.903 56.8V56.82H82.183L80.023 53.62C79.8364 53.34 79.683 53.14 79.563 53.02C79.4564 52.9 79.323 52.8267 79.163 52.8C79.0164 52.7733 78.7764 52.76 78.443 52.76H78.023V56.82ZM80.343 46.76H78.023V50.16H80.343C81.0097 50.16 81.4697 50.0267 81.723 49.76C81.9897 49.4933 82.123 49.06 82.123 48.46C82.123 47.86 81.9897 47.4267 81.723 47.16C81.4697 46.8933 81.0097 46.76 80.343 46.76Z" fill="white"/>
<path d="M91.6937 53.24V58.76C91.6937 59.12 91.7737 59.3667 91.9337 59.5C92.0937 59.6467 92.3337 59.72 92.6537 59.72C92.8803 59.72 93.0803 59.6867 93.2537 59.62L93.2737 59.64V61.78C93.1003 61.8333 92.907 61.88 92.6937 61.92C92.4803 61.96 92.227 61.98 91.9337 61.98C90.8937 61.98 90.1737 61.7267 89.7737 61.22C89.3737 60.7133 89.1737 60.0333 89.1737 59.18V53.5C89.1737 53.1933 89.0803 52.98 88.8937 52.86C88.7203 52.74 88.527 52.6667 88.3137 52.64C88.1003 52.6133 87.9337 52.6 87.8137 52.6V50.42C87.9337 50.42 88.1003 50.4133 88.3137 50.4C88.527 50.3733 88.7203 50.3133 88.8937 50.22C89.0803 50.1133 89.1737 49.94 89.1737 49.7V43.86C89.1737 42.9933 89.3737 42.3133 89.7737 41.82C90.1737 41.3133 90.8937 41.06 91.9337 41.06C92.227 41.06 92.4803 41.08 92.6937 41.12C92.907 41.1467 93.1003 41.1933 93.2737 41.26V43.4L93.2537 43.42C93.0803 43.3533 92.8803 43.32 92.6537 43.32C92.3337 43.32 92.0937 43.3933 91.9337 43.54C91.7737 43.6733 91.6937 43.92 91.6937 44.28V49.96C91.6937 50.3733 91.5937 50.6867 91.3937 50.9C91.207 51.1133 90.987 51.26 90.7337 51.34C90.4937 51.42 90.287 51.4733 90.1137 51.5V51.58C90.287 51.5933 90.4937 51.6333 90.7337 51.7C90.987 51.7533 91.207 51.8933 91.3937 52.12C91.5937 52.3467 91.6937 52.72 91.6937 53.24ZM95.8777 56.82V44.16H101.418C102.524 44.16 103.451 44.2533 104.198 44.44C104.944 44.6133 105.544 44.9267 105.998 45.38C106.451 45.8333 106.778 46.4667 106.978 47.28C107.178 48.08 107.278 49.1133 107.278 50.38C107.278 51.7 107.178 52.78 106.978 53.62C106.778 54.46 106.451 55.1133 105.998 55.58C105.544 56.0467 104.944 56.3733 104.198 56.56C103.451 56.7333 102.524 56.82 101.418 56.82H95.8777ZM100.958 46.86H99.0777V54.12H100.958C101.731 54.12 102.338 54.0333 102.778 53.86C103.231 53.6867 103.551 53.3333 103.738 52.8C103.938 52.2667 104.038 51.46 104.038 50.38C104.038 49.3533 103.938 48.5933 103.738 48.1C103.551 47.5933 103.231 47.26 102.778 47.1C102.338 46.94 101.731 46.86 100.958 46.86ZM109.276 56.82V44.16H118.676V46.76H112.476V49.16H117.856V51.76H112.476V54.22H118.676V56.82H109.276ZM131.812 44.18L127.872 56.82H123.472L119.732 44.18H123.312C123.526 44.8467 123.752 45.6067 123.992 46.46C124.232 47.3133 124.466 48.1867 124.692 49.08C124.932 49.96 125.139 50.7867 125.312 51.56C125.499 52.32 125.639 52.9533 125.732 53.46H125.812C125.906 52.9533 126.039 52.32 126.212 51.56C126.399 50.7867 126.606 49.96 126.832 49.08C127.072 48.2 127.312 47.3333 127.552 46.48C127.792 45.6267 128.019 44.86 128.232 44.18H131.812ZM135.431 53.24C135.431 52.72 135.525 52.3467 135.711 52.12C135.911 51.8933 136.131 51.7533 136.371 51.7C136.625 51.6333 136.838 51.5933 137.011 51.58V51.5C136.838 51.4733 136.625 51.42 136.371 51.34C136.131 51.26 135.911 51.1133 135.711 50.9C135.525 50.6867 135.431 50.3733 135.431 49.96V44.28C135.431 43.92 135.351 43.6733 135.191 43.54C135.031 43.3933 134.791 43.32 134.471 43.32C134.245 43.32 134.045 43.3533 133.871 43.42L133.851 43.4V41.26C134.025 41.1933 134.218 41.1467 134.431 41.12C134.645 41.08 134.898 41.06 135.191 41.06C136.231 41.06 136.951 41.3133 137.351 41.82C137.751 42.3133 137.951 42.9933 137.951 43.86V49.7C137.951 49.94 138.038 50.1133 138.211 50.22C138.398 50.3133 138.598 50.3733 138.811 50.4C139.038 50.4133 139.205 50.42 139.311 50.42V52.6C139.205 52.6 139.038 52.6133 138.811 52.64C138.598 52.6667 138.398 52.74 138.211 52.86C138.038 52.98 137.951 53.1933 137.951 53.5V59.18C137.951 60.0333 137.751 60.7133 137.351 61.22C136.951 61.7267 136.231 61.98 135.191 61.98C134.898 61.98 134.645 61.96 134.431 61.92C134.218 61.88 134.025 61.8333 133.851 61.78V59.64L133.871 59.62C134.045 59.6867 134.245 59.72 134.471 59.72C134.791 59.72 135.031 59.6467 135.191 59.5C135.351 59.3667 135.431 59.12 135.431 58.76V53.24Z" fill="#FF6363"/>
</svg>
